PathFileType	4	(X/Y/Z)	KinectAzureSkeleton.trc
DateRate	CameraRate	NumFrames	NumMarkers	Units	OrigDateRate	OrigDataStartFrame	OrigNumFrames
30	30	8	32	mm	30	115	183
Frame#	Time			PELVIS			SPINE_NAVAL			SPINE_CHEST			NECK			CLAVICLE_LEFT			SHOULDER_LEFT			ELBOW_LEFT			WRIST_LEFT			HAND_LEFT			HANDTIP_LEFT			THUMB_LEFT			CLAVICLE_RIGHT			SHOULDER_RIGHT			ELBOW_RIGHT			WRIST_RIGHT			HAND_RIGHT			HANDTIP_RIGHT			THUMB_RIGHT			HIP_LEFT			KNEE_LEFT			ANKLE_LEFT			FOOT_LEFT			HIP_RIGHT			KNEE_RIGHT			ANKLE_RIGHT			FOOT_RIGHT			HEAD			NOSE			EYE_LEFT			EAR_LEFT			EYE_RIGHT			EAR_RIGHT
		X1	Y1	Z1	X2	Y2	Z2	X3	Y3	Z3	X4	Y4	Z4	X5	Y5	Z5	X6	Y6	Z6	X7	Y7	Z7	X8	Y8	Z8	X9	Y9	Z9	X10	Y10	Z10	X11	Y11	Z11	X12	Y12	Z12	X13	Y13	Z13	X14	Y14	Z14	X15	Y15	Z15	X16	Y16	Z16	X17	Y17	Z17	X18	Y18	Z18	X19	Y19	Z19	X20	Y20	Z20	X21	Y21	Z21	X22	Y22	Z22	X23	Y23	Z23	X24	Y24	Z24	X25	Y25	Z25	X26	Y26	Z26	X27	Y27	Z27	X28	Y28	Z28	X29	Y29	Z29	X30	Y30	Z30	X31	Y31	Z31	X32	Y32	Z32

114	3.851066	-2731.970703	3.772536	110.962326	-2730.582275	185.965988	114.345589	-2742.675293	331.146942	114.247299	-2764.952637	551.751160	110.431862	-2773.398682	515.451660	88.645294	-2753.903564	475.948761	-50.567909	-2737.782959	198.281586	-98.681816	-2630.690186	-13.009995	-95.161118	-2714.537354	-64.324333	-91.918114	-2668.346680	-88.303162	5.410738	-2709.697266	-130.995010	-52.511490	-2772.140625	514.885254	140.819168	-2742.869141	471.171204	264.417816	-2791.864502	195.611053	330.623016	-2756.229004	-40.884064	349.479401	-2781.607422	-133.152145	394.843811	-2835.052002	-219.122177	355.826447	-2788.012695	-188.014130	338.404968	-2742.557861	5.571187	18.447123	-2853.609619	-387.702332	33.137520	-3106.885986	-680.859924	84.444092	-3020.520996	-850.106079	61.782814	-2722.423096	2.147276	194.387177	-2592.228516	-384.727997	179.240570	-2532.031982	-774.306763	155.629471	-2368.760010	-837.173828	135.979691	-2741.151855	631.714844	109.334274	-2601.216553	715.767517	126.451340	-2632.799316	738.981262	84.831276	-2734.676270	704.565247	12.691266	-2638.198730	739.628113	155.705643	-2757.298584	704.590454	205.685944
115	3.884400	-2691.961670	4.439384	111.213799	-2688.735352	188.213776	116.478180	-2702.189453	334.586670	118.301460	-2730.432129	556.558960	119.389229	-2738.227539	520.191345	96.714905	-2717.478271	482.101929	-44.093021	-2712.902344	202.418091	-97.734985	-2614.063721	-15.242323	-97.711899	-2690.903076	-78.055359	-97.748093	-2637.132324	-95.896416	-1.867041	-2677.309570	-145.654648	-60.650429	-2736.417236	518.549133	149.322220	-2703.990234	472.686340	272.680634	-2745.484863	192.454483	335.674561	-2708.026123	-45.482098	359.843536	-2735.013916	-148.193420	371.726746	-2783.210449	-244.844498	389.587402	-2683.141113	-192.942291	331.029663	-2703.613525	7.314015	18.004625	-2795.914795	-394.787262	24.737717	-3074.687256	-667.516785	83.063766	-3012.362305	-849.289551	64.190376	-2681.453857	1.843828	195.264404	-2558.874756	-391.238342	176.697189	-2519.072021	-786.888000	150.944016	-2351.300049	-842.861755	134.248169	-2708.514404	637.847534	119.767105	-2573.654541	726.348511	157.311539	-2602.684570	752.099854	114.625595	-2696.721924	719.871155	29.828753	-2614.588379	746.226624	185.112198	-2737.001953	701.816589	220.868835
116	3.917733	-2653.246094	1.153910	114.280655	-2648.910400	185.412552	120.739014	-2662.023193	332.241211	123.379822	-2689.524170	554.927002	128.107681	-2697.351318	518.874207	104.704742	-2673.909424	496.459320	-39.465508	-2684.448486	217.345383	-99.358017	-2604.640381	-8.738607	-100.301575	-2584.894287	-106.267540	-97.767166	-2665.183594	-177.261322	-66.305412	-2616.274902	-144.036682	-36.482437	-2695.838135	516.322266	157.441452	-2660.568359	470.305084	280.403595	-2702.990234	188.877136	341.381683	-2665.143799	-49.828606	364.533051	-2700.119873	-150.037262	379.425751	-2634.213867	-63.556274	394.652924	-2725.249512	-178.922806	309.273560	-2663.863037	4.684130	20.690046	-2732.680664	-403.380585	17.900013	-3029.651367	-658.193848	75.331734	-2985.457764	-846.174683	60.728416	-2643.671631	-2.032833	198.675201	-2537.684326	-401.248383	181.778076	-2511.206787	-799.181946	155.777695	-2340.781982	-848.153381	138.352341	-2667.240234	636.353455	129.998230	-2533.349121	728.153442	165.181152	-2563.676758	753.168823	122.729156	-2658.590088	718.469482	39.296978	-2574.383301	747.324951	193.625519	-2695.600098	700.316650	231.582031
117	3.951066	-2618.711426	3.881691	115.064240	-2613.484131	187.514694	122.180641	-2625.548584	333.957642	125.428734	-2651.937500	556.045410	131.192932	-2660.102783	520.226746	107.801407	-2641.031006	495.758179	-36.205574	-2660.270508	217.161865	-91.940132	-2598.836182	-13.653398	-100.589233	-2595.367432	-112.260536	-111.118111	-2628.864990	-208.254013	-65.714584	-2577.720703	-151.092148	-45.473568	-2658.145996	517.482056	160.348053	-2625.854248	470.268890	283.204926	-2654.424072	188.482849	346.214478	-2614.290527	-48.642235	373.438293	-2643.809570	-145.606812	407.225342	-2595.491211	-49.822731	385.550476	-2649.597900	-193.818832	344.064117	-2629.884766	7.812046	21.851986	-2653.341309	-403.807281	7.405324	-2970.097656	-630.399231	68.750504	-2974.002686	-823.260193	61.136269	-2608.635010	0.334137	199.117599	-2512.238281	-399.826935	179.069687	-2513.430420	-797.494873	154.820709	-2345.250488	-850.247009	132.896942	-2629.348389	637.110840	133.179413	-2499.682129	736.420105	160.450912	-2532.118652	757.870117	117.853340	-2626.936279	714.939087	38.906132	-2540.767090	754.877563	188.979691	-2658.216309	704.153687	232.131943
118	3.984400	-2581.450684	12.436617	119.063210	-2576.682373	195.367310	127.009346	-2589.516846	341.187164	130.749313	-2617.166016	562.266846	137.259125	-2624.961182	526.629333	113.764061	-2604.438477	509.643311	-30.563816	-2634.884521	233.760452	-89.345871	-2585.343750	1.965195	-112.139511	-2601.382813	-94.231339	-128.342392	-2637.922119	-181.383194	-70.237160	-2575.681152	-141.094650	-71.540009	-2623.276855	523.689758	166.114487	-2588.317627	470.960632	285.393738	-2607.945557	189.048523	346.291290	-2568.155518	-46.317741	380.453949	-2572.402832	-152.418839	373.016541	-2491.673584	-135.107071	301.786774	-2643.677246	-176.695221	398.136444	-2591.292480	16.732735	26.066885	-2581.786133	-393.564209	3.728075	-2903.510986	-611.249573	62.040657	-2942.431396	-799.596802	64.020958	-2572.575195	8.559252	202.921844	-2501.181885	-395.407806	186.100464	-2514.054443	-791.448608	162.790878	-2350.315918	-852.131958	134.117859	-2595.156494	643.156677	139.691635	-2465.576416	742.814575	161.922974	-2498.929688	763.319763	119.859726	-2595.132813	718.900452	44.282028	-2505.867188	761.672180	190.950455	-2621.728271	711.766113	237.644394
119	4.017733	-2549.609863	12.809979	121.046082	-2543.265625	195.163422	129.575455	-2555.268799	340.631195	134.021881	-2581.620850	561.188293	142.453812	-2590.162598	525.819092	119.032349	-2573.001465	518.849915	-26.154406	-2608.921387	245.444839	-89.496872	-2572.780029	13.488099	-125.305206	-2602.042236	-80.591362	-128.884109	-2620.134033	-175.082123	-74.262009	-2553.541016	-130.563644	-94.238579	-2587.156250	522.581604	171.161530	-2549.690430	475.332489	291.552795	-2564.603760	193.723984	351.425995	-2504.279541	-37.706985	376.523590	-2514.707520	-143.287094	372.939758	-2543.584229	-248.101288	370.567261	-2457.401123	-172.740997	326.958191	-2560.436035	17.518274	28.437950	-2516.138916	-388.774445	-2.736166	-2841.278320	-598.315735	59.118652	-2885.659180	-784.873657	63.274086	-2539.846924	8.560941	204.554642	-2485.179932	-396.867798	187.667938	-2516.239014	-790.880920	165.679367	-2353.852539	-852.584473	134.586151	-2559.234375	641.739441	144.765762	-2430.638428	744.037170	152.894760	-2468.637451	763.597290	114.716202	-2571.059082	716.922485	50.073990	-2467.909668	762.050842	185.947205	-2576.678467	709.900757	244.643784
120	4.051066	-2516.681152	17.454571	119.510147	-2512.329346	198.854004	128.664337	-2524.558838	343.508606	133.340134	-2551.073730	562.874023	140.932144	-2559.747070	527.566772	117.896744	-2544.469238	523.284546	-26.813784	-2580.768799	253.598267	-98.558502	-2550.911133	28.146475	-162.343231	-2589.989502	-36.617855	-99.937737	-2525.147705	-124.107552	-115.731209	-2589.755371	-109.634697	-125.503662	-2556.215088	524.604736	169.727386	-2513.781738	484.601990	290.289703	-2520.385010	204.652756	351.977722	-2448.055420	-21.425009	381.425842	-2444.901611	-124.131905	357.147705	-2484.105957	-222.433441	379.479095	-2516.239014	-155.042969	369.567871	-2526.612305	22.345331	27.315968	-2450.767334	-376.421967	-10.642771	-2768.252686	-593.123779	52.991341	-2801.795166	-780.908203	55.948822	-2507.725098	13.041021	202.645416	-2474.432129	-392.638977	189.749725	-2517.812988	-783.312500	167.191422	-2358.971680	-853.767090	142.380386	-2528.928223	643.041565	142.611893	-2398.446289	741.553467	149.532578	-2436.344482	762.269165	112.336349	-2540.327148	718.932739	49.277027	-2434.543213	760.074768	183.148483	-2543.039063	710.342346	242.799423
121	4.084400	-2486.584473	17.522402	120.702057	-2482.504150	197.424942	129.864014	-2492.576660	341.052338	134.230377	-2513.556396	559.098450	143.900864	-2522.847900	524.548889	120.620399	-2510.604248	523.276978	-23.229301	-2560.329102	258.164032	-94.891205	-2532.504639	29.488935	-137.368088	-2585.454102	-48.895035	-159.953018	-2655.702148	-132.114532	-152.965118	-2569.513916	-111.004845	-117.822395	-2519.802734	520.984192	172.012466	-2482.671875	473.444946	290.343994	-2474.033691	194.912643	347.029053	-2391.846680	-27.252718	359.547943	-2376.107666	-129.988525	372.289124	-2330.404297	-225.565613	389.101593	-2445.497559	-165.743744	374.131836	-2495.570068	22.387125	29.181183	-2393.856689	-366.255554	-16.490776	-2694.551270	-598.384766	54.273891	-2712.622803	-786.676392	50.053440	-2478.480713	13.132361	203.230209	-2451.034668	-389.655426	191.763306	-2531.659424	-771.014465	168.707977	-2375.927002	-846.842773	151.367081	-2489.653564	638.014465	146.576874	-2368.686279	745.407959	159.656509	-2405.990723	763.170166	121.076820	-2502.436279	712.656738	53.701923	-2407.319336	760.773987	191.307114	-2513.407959	702.957336	245.274933
